<svg width="50" height="50" viewBox="0 0 50 50" fill="none" xmlns="http://www.w3.org/2000/svg">
<path d="M29.1665 27.0833H37.4998M12.4998 27.0833H16.6665M16.6665 27.0833H20.8332M16.6665 27.0833V22.9167M16.6665 27.0833V31.25M12.4998 14.5833H5.4165C5.08498 14.5833 4.76704 14.715 4.53262 14.9494C4.2982 15.1839 4.1665 15.5018 4.1665 15.8333V38.3333C4.1665 38.6649 4.2982 38.9828 4.53262 39.2172C4.76704 39.4516 5.08498 39.5833 5.4165 39.5833H44.5832C44.9147 39.5833 45.2326 39.4516 45.4671 39.2172C45.7015 38.9828 45.8332 38.6649 45.8332 38.3333V15.8333C45.8332 15.5018 45.7015 15.1839 45.4671 14.9494C45.2326 14.715 44.9147 14.5833 44.5832 14.5833H37.4998M12.4998 14.5833V10.4167H16.6665V14.5833M12.4998 14.5833H16.6665M37.4998 14.5833V10.4167H33.3332V14.5833M37.4998 14.5833H33.3332M16.6665 14.5833H33.3332" stroke="black" stroke-width="1.5" stroke-linecap="round" stroke-linejoin="round"/>
</svg>
