<svg width="50" height="50" viewBox="0 0 50 50" fill="none" xmlns="http://www.w3.org/2000/svg">
<path d="M6.25012 19.5312C6.25012 18.9096 6.49705 18.3135 6.93658 17.874C7.37612 17.4344 7.97227 17.1875 8.59387 17.1875H10.1564C10.778 17.1875 11.3741 17.4344 11.8136 17.874C12.2532 18.3135 12.5001 18.9096 12.5001 19.5312C12.5001 20.1529 12.2532 20.749 11.8136 21.1885C11.3741 21.6281 10.778 21.875 10.1564 21.875H8.59387C7.97227 21.875 7.37612 21.6281 6.93658 21.1885C6.49705 20.749 6.25012 20.1529 6.25012 19.5312ZM25.0001 7.03125C25.6217 7.03125 26.2179 6.78432 26.6574 6.34478C27.0969 5.90524 27.3439 5.3091 27.3439 4.6875V3.125C27.3439 2.5034 27.0969 1.90726 26.6574 1.46772C26.2179 1.02818 25.6217 0.78125 25.0001 0.78125C24.3785 0.78125 23.7824 1.02818 23.3428 1.46772C22.9033 1.90726 22.6564 2.5034 22.6564 3.125V4.6875C22.6564 5.3091 22.9033 5.90524 23.3428 6.34478C23.7824 6.78432 24.3785 7.03125 25.0001 7.03125ZM12.8458 10.6914C13.0638 10.9094 13.3227 11.0824 13.6075 11.2003C13.8924 11.3183 14.1977 11.3791 14.506 11.3791C14.8143 11.3791 15.1196 11.3183 15.4044 11.2003C15.6893 11.0824 15.9481 10.9094 16.1661 10.6914C16.3841 10.4734 16.5571 10.2146 16.6751 9.92972C16.7931 9.64487 16.8538 9.33957 16.8538 9.03125C16.8538 8.72293 16.7931 8.41763 16.6751 8.13278C16.5571 7.84793 16.3841 7.58911 16.1661 7.37109L15.0607 6.26758C14.8426 6.04956 14.5838 5.87662 14.299 5.75864C14.0141 5.64065 13.7088 5.57992 13.4005 5.57992C13.0922 5.57992 12.7869 5.64065 12.502 5.75864C12.2172 5.87662 11.9584 6.04956 11.7404 6.26758C11.3001 6.70788 11.0527 7.30506 11.0527 7.92773C11.0527 8.55041 11.3001 9.14759 11.7404 9.58789L12.8458 10.6914ZM35.5021 11.3789C35.8101 11.3789 36.1151 11.3182 36.3996 11.2002C36.6841 11.0822 36.9426 10.9093 37.1603 10.6914L38.2638 9.58789C38.4818 9.36988 38.6547 9.11105 38.7727 8.8262C38.8907 8.54135 38.9514 8.23605 38.9514 7.92773C38.9514 7.61941 38.8907 7.31411 38.7727 7.02926C38.6547 6.74441 38.4818 6.48559 38.2638 6.26758C38.0458 6.04956 37.787 5.87662 37.5021 5.75864C37.2173 5.64065 36.912 5.57992 36.6036 5.57992C35.981 5.57992 35.3838 5.82728 34.9435 6.26758L33.838 7.37109C33.5099 7.69888 33.2863 8.11666 33.1958 8.57155C33.1052 9.02643 33.1516 9.49797 33.3291 9.92646C33.5067 10.355 33.8074 10.7211 34.1931 10.9786C34.5789 11.2362 35.0324 11.3734 35.4962 11.373L35.5021 11.3789ZM37.5001 19.5312C37.5001 20.1529 37.747 20.749 38.1866 21.1885C38.6261 21.6281 39.2223 21.875 39.8439 21.875H41.4064C42.028 21.875 42.6241 21.6281 43.0636 21.1885C43.5032 20.749 43.7501 20.1529 43.7501 19.5312C43.7501 18.9096 43.5032 18.3135 43.0636 17.874C42.6241 17.4344 42.028 17.1875 41.4064 17.1875H39.8439C39.2223 17.1875 38.6261 17.4344 38.1866 17.874C37.747 18.3135 37.5001 18.9096 37.5001 19.5312ZM17.1876 21.875C17.8092 21.875 18.4054 21.6281 18.8449 21.1885C19.2844 20.749 19.5314 20.1529 19.5314 19.5312C19.5314 18.0808 20.1075 16.6898 21.1331 15.6643C22.1587 14.6387 23.5497 14.0625 25.0001 14.0625C26.4505 14.0625 27.8415 14.6387 28.8671 15.6643C29.8927 16.6898 30.4689 18.0808 30.4689 19.5312C30.4689 20.1529 30.7158 20.749 31.1553 21.1885C31.5949 21.6281 32.191 21.875 32.8126 21.875C33.4342 21.875 34.0304 21.6281 34.4699 21.1885C34.9094 20.749 35.1564 20.1529 35.1564 19.5312C35.1564 16.8376 34.0863 14.2544 32.1817 12.3497C30.277 10.445 27.6937 9.375 25.0001 9.375C22.3065 9.375 19.7232 10.445 17.8186 12.3497C15.9139 14.2544 14.8439 16.8376 14.8439 19.5312C14.8439 20.1529 15.0908 20.749 15.5303 21.1885C15.9699 21.6281 16.566 21.875 17.1876 21.875ZM47.3361 43.3691C47.1297 43.7227 46.8342 44.016 46.4792 44.2199C46.1242 44.4238 45.722 44.5311 45.3126 44.5312H4.68762C4.2781 44.5313 3.87572 44.424 3.52057 44.2201C3.16542 44.0162 2.8699 43.7228 2.66343 43.3691C2.45696 43.0155 2.34676 42.6139 2.34381 42.2044C2.34086 41.7949 2.44526 41.3918 2.6466 41.0352L11.045 26.1914C11.2492 25.8298 11.5458 25.529 11.9044 25.3196C12.263 25.1103 12.6708 25 13.0861 25H36.9142C37.3294 25 37.7372 25.1103 38.0958 25.3196C38.4545 25.529 38.751 25.8298 38.9552 26.1914L47.3536 41.0352C47.5549 41.3918 47.6591 41.795 47.656 42.2045C47.653 42.614 47.5426 43.0155 47.3361 43.3691ZM35.547 29.6875H27.3439V32.0312H36.879L35.547 29.6875ZM14.4532 29.6875L13.129 32.0312H22.6564V29.6875H14.4532ZM8.70519 39.8438H22.6564V36.7188H10.4708L8.70519 39.8438ZM41.295 39.8438L39.5372 36.7188H27.3439V39.8438H41.295Z" fill="black"/>
</svg>
