<svg width="18" height="18" viewBox="0 0 18 18" fill="none" xmlns="http://www.w3.org/2000/svg">
<path d="M16.4851 17.154L10.2231 10.892C9.7231 11.318 9.14811 11.6477 8.49811 11.881C7.84811 12.1143 7.19477 12.231 6.53811 12.231C4.93677 12.231 3.58144 11.6767 2.47211 10.568C1.36277 9.45932 0.808105 8.10432 0.808105 6.50298C0.808105 4.90165 1.36211 3.54598 2.47011 2.43598C3.57811 1.32598 4.93277 0.770318 6.53411 0.768984C8.13544 0.767651 9.49144 1.32232 10.6021 2.43298C11.7128 3.54365 12.2681 4.89932 12.2681 6.49998C12.2681 7.19465 12.1451 7.86698 11.8991 8.51698C11.6531 9.16698 11.3298 9.72299 10.9291 10.185L17.1911 16.446L16.4851 17.154ZM6.5391 11.23C7.86577 11.23 8.98577 10.7733 9.89911 9.85998C10.8124 8.94665 11.2691 7.82632 11.2691 6.49898C11.2691 5.17165 10.8124 4.05165 9.89911 3.13898C8.98577 2.22632 7.86577 1.76965 6.5391 1.76898C5.21244 1.76832 4.09211 2.22498 3.17811 3.13898C2.26411 4.05298 1.80744 5.17298 1.80811 6.49898C1.80877 7.82498 2.26544 8.94499 3.17811 9.85898C4.09077 10.773 5.21077 11.2297 6.53811 11.229" fill="black"/>
</svg>
